{
  "ffprobe": {
    "audio_streams": [
      {
        "avg_frame_rate": "0/0",
        "bit_rate": "768000",
        "bits_per_sample": 16,
        "channels": 1,
        "codec_long_name": "PCM signed 16-bit little-endian",
        "codec_name": "pcm_s16le",
        "codec_tag": "0x0000",
        "codec_tag_string": "[0][0][0][0]",
        "codec_time_base": "1/48000",
        "codec_type": "audio",
        "disposition": {
          "attached_pic": 0,
          "clean_effects": 0,
          "comment": 0,
          "default": 0,
          "dub": 0,
          "forced": 0,
          "hearing_impaired": 0,
          "karaoke": 0,
          "lyrics": 0,
          "original": 0,
          "timed_thumbnails": 0,
          "visual_impaired": 0
        },
        "duration": "897.720000",
        "duration_ts": 43090560,
        "index": 1,
        "r_frame_rate": "0/0",
        "sample_fmt": "s16",
        "sample_rate": "48000",
        "start_pts": 0,
        "start_time": "0.000000",
        "tags": {
          "file_package_umid": "0x060A2B340101010501010D20130000004EC537AF4B924E439172A26B15626684",
          "track_name": "Audio Track"
        },
        "time_base": "1/48000"
      },
        {
        "avg_frame_rate": "0/0",
        "bit_rate": "768000",
        "bits_per_sample": 16,
        "channels": 1,
        "codec_long_name": "PCM signed 16-bit little-endian",
        "codec_name": "pcm_s16le",
        "codec_tag": "0x0000",
        "codec_tag_string": "[0][0][0][0]",
        "codec_time_base": "1/48000",
        "codec_type": "audio",
        "disposition": {
          "attached_pic": 0,
          "clean_effects": 0,
          "comment": 0,
          "default": 0,
          "dub": 0,
          "forced": 0,
          "hearing_impaired": 0,
          "karaoke": 0,
          "lyrics": 0,
          "original": 0,
          "timed_thumbnails": 0,
          "visual_impaired": 0
        },
        "duration": "897.720000",
        "duration_ts": 43090560,
        "index": 2,
        "r_frame_rate": "0/0",
        "sample_fmt": "s16",
        "sample_rate": "48000",
        "start_pts": 0,
        "start_time": "0.000000",
        "tags": {
          "file_package_umid": "0x060A2B340101010501010D20130000004EC537AF4B924E439172A26B15626684",
          "track_name": "Audio Track"
        },
        "time_base": "1/48000"
      },
      {
        "avg_frame_rate": "0/0",
        "bit_rate": "768000",
        "bits_per_sample": 16,
        "channels": 1,
        "codec_long_name": "PCM signed 16-bit little-endian",
        "codec_name": "pcm_s16le",
        "codec_tag": "0x0000",
        "codec_tag_string": "[0][0][0][0]",
        "codec_time_base": "1/48000",
        "codec_type": "audio",
        "disposition": {
          "attached_pic": 0,
          "clean_effects": 0,
          "comment": 0,
          "default": 0,
          "dub": 0,
          "forced": 0,
          "hearing_impaired": 0,
          "karaoke": 0,
          "lyrics": 0,
          "original": 0,
          "timed_thumbnails": 0,
          "visual_impaired": 0
        },
        "duration": "897.720000",
        "duration_ts": 43090560,
        "index": 3,
        "r_frame_rate": "0/0",
        "sample_fmt": "s16",
        "sample_rate": "48000",
        "start_pts": 0,
        "start_time": "0.000000",
        "tags": {
          "file_package_umid": "0x060A2B340101010501010D20130000004EC537AF4B924E439172A26B15626684",
          "track_name": "Audio Track"
        },
        "time_base": "1/48000"
      },
      {
        "avg_frame_rate": "0/0",
        "bit_rate": "768000",
        "bits_per_sample": 16,
        "channels": 1,
        "codec_long_name": "PCM signed 16-bit little-endian",
        "codec_name": "pcm_s16le",
        "codec_tag": "0x0000",
        "codec_tag_string": "[0][0][0][0]",
        "codec_time_base": "1/48000",
        "codec_type": "audio",
        "disposition": {
          "attached_pic": 0,
          "clean_effects": 0,
          "comment": 0,
          "default": 0,
          "dub": 0,
          "forced": 0,
          "hearing_impaired": 0,
          "karaoke": 0,
          "lyrics": 0,
          "original": 0,
          "timed_thumbnails": 0,
          "visual_impaired": 0
        },
        "duration": "897.720000",
        "duration_ts": 43090560,
        "index": 4,
        "r_frame_rate": "0/0",
        "sample_fmt": "s16",
        "sample_rate": "48000",
        "start_pts": 0,
        "start_time": "0.000000",
        "tags": {
          "file_package_umid": "0x060A2B340101010501010D20130000004EC537AF4B924E439172A26B15626684",
          "track_name": "Audio Track"
        },
        "time_base": "1/48000"
      },
      {
        "avg_frame_rate": "0/0",
        "bit_rate": "768000",
        "bits_per_sample": 16,
        "channels": 1,
        "codec_long_name": "PCM signed 16-bit little-endian",
        "codec_name": "pcm_s16le",
        "codec_tag": "0x0000",
        "codec_tag_string": "[0][0][0][0]",
        "codec_time_base": "1/48000",
        "codec_type": "audio",
        "disposition": {
          "attached_pic": 0,
          "clean_effects": 0,
          "comment": 0,
          "default": 0,
          "dub": 0,
          "forced": 0,
          "hearing_impaired": 0,
          "karaoke": 0,
          "lyrics": 0,
          "original": 0,
          "timed_thumbnails": 0,
          "visual_impaired": 0
        },
        "duration": "897.720000",
        "duration_ts": 43090560,
        "index": 5,
        "r_frame_rate": "0/0",
        "sample_fmt": "s16",
        "sample_rate": "48000",
        "start_pts": 0,
        "start_time": "0.000000",
        "tags": {
          "file_package_umid": "0x060A2B340101010501010D20130000004EC537AF4B924E439172A26B15626684",
          "track_name": "Audio Track"
        },
        "time_base": "1/48000"
      },
      {
        "avg_frame_rate": "0/0",
        "bit_rate": "768000",
        "bits_per_sample": 16,
        "channels": 1,
        "codec_long_name": "PCM signed 16-bit little-endian",
        "codec_name": "pcm_s16le",
        "codec_tag": "0x0000",
        "codec_tag_string": "[0][0][0][0]",
        "codec_time_base": "1/48000",
        "codec_type": "audio",
        "disposition": {
          "attached_pic": 0,
          "clean_effects": 0,
          "comment": 0,
          "default": 0,
          "dub": 0,
          "forced": 0,
          "hearing_impaired": 0,
          "karaoke": 0,
          "lyrics": 0,
          "original": 0,
          "timed_thumbnails": 0,
          "visual_impaired": 0
        },
        "duration": "897.720000",
        "duration_ts": 43090560,
        "index": 6,
        "r_frame_rate": "0/0",
        "sample_fmt": "s16",
        "sample_rate": "48000",
        "start_pts": 0,
        "start_time": "0.000000",
        "tags": {
          "file_package_umid": "0x060A2B340101010501010D20130000004EC537AF4B924E439172A26B15626684",
          "track_name": "Audio Track"
        },
        "time_base": "1/48000"
      },
      {
        "avg_frame_rate": "0/0",
        "bit_rate": "768000",
        "bits_per_sample": 16,
        "channels": 1,
        "codec_long_name": "PCM signed 16-bit little-endian",
        "codec_name": "pcm_s16le",
        "codec_tag": "0x0000",
        "codec_tag_string": "[0][0][0][0]",
        "codec_time_base": "1/48000",
        "codec_type": "audio",
        "disposition": {
          "attached_pic": 0,
          "clean_effects": 0,
          "comment": 0,
          "default": 0,
          "dub": 0,
          "forced": 0,
          "hearing_impaired": 0,
          "karaoke": 0,
          "lyrics": 0,
          "original": 0,
          "timed_thumbnails": 0,
          "visual_impaired": 0
        },
        "duration": "897.720000",
        "duration_ts": 43090560,
        "index": 7,
        "r_frame_rate": "0/0",
        "sample_fmt": "s16",
        "sample_rate": "48000",
        "start_pts": 0,
        "start_time": "0.000000",
        "tags": {
          "file_package_umid": "0x060A2B340101010501010D20130000004EC537AF4B924E439172A26B15626684",
          "track_name": "Audio Track"
        },
        "time_base": "1/48000"
      },
      {
        "avg_frame_rate": "0/0",
        "bit_rate": "768000",
        "bits_per_sample": 16,
        "channels": 1,
        "codec_long_name": "PCM signed 16-bit little-endian",
        "codec_name": "pcm_s16le",
        "codec_tag": "0x0000",
        "codec_tag_string": "[0][0][0][0]",
        "codec_time_base": "1/48000",
        "codec_type": "audio",
        "disposition": {
          "attached_pic": 0,
          "clean_effects": 0,
          "comment": 0,
          "default": 0,
          "dub": 0,
          "forced": 0,
          "hearing_impaired": 0,
          "karaoke": 0,
          "lyrics": 0,
          "original": 0,
          "timed_thumbnails": 0,
          "visual_impaired": 0
        },
        "duration": "897.720000",
        "duration_ts": 43090560,
        "index": 8,
        "r_frame_rate": "0/0",
        "sample_fmt": "s16",
        "sample_rate": "48000",
        "start_pts": 0,
        "start_time": "0.000000",
        "tags": {
          "file_package_umid": "0x060A2B340101010501010D20130000004EC537AF4B924E439172A26B15626684",
          "track_name": "Audio Track"
        },
        "time_base": "1/48000"
      }
    ],
    "format": {
      "bit_rate": "120524969",
      "duration": "897.720000",
      "filename": "mnt/archive2/UEFA/201904/7947133001/7947133001_original.mxf",
      "filename_extension": "mxf",
      "format_long_name": "MXF (Material eXchange Format)",
      "format_name": "mxf",
      "nb_programs": 0,
      "probe_score": 100,
      "size": "13524709436",
      "start_time": "0.000000",
      "streams_attachment_count": 0,
      "streams_audio_count": 8,
      "streams_count": 9,
      "streams_data_count": 0,
      "streams_image_count": 0,
      "streams_subtitle_count": 0,
      "streams_video_count": 1
    },
    "video_streams": [
      {
        "avg_frame_rate": "25/1",
        "bits_per_raw_sample": "10",
        "chroma_location": "left",
        "codec_long_name": "H.264 / AVC / MPEG-4 AVC / MPEG-4 part 10",
        "codec_name": "h264",
        "codec_tag": "0x0000",
        "codec_tag_string": "[0][0][0][0]",
        "codec_time_base": "1/50",
        "codec_type": "video",
        "coded_height": 1088,
        "coded_width": 1920,
        "color_primaries": "bt709",
        "color_range": "pc",
        "color_space": "bt709",
        "color_transfer": "bt709",
        "display_aspect_ratio": "16:9",
        "disposition": {
          "attached_pic": 0,
          "clean_effects": 0,
          "comment": 0,
          "default": 0,
          "dub": 0,
          "forced": 0,
          "hearing_impaired": 0,
          "karaoke": 0,
          "lyrics": 0,
          "original": 0,
          "timed_thumbnails": 0,
          "visual_impaired": 0
        },
        "duration": "897.720000",
        "duration_ts": 22443,
        "field_order": "tt",
        "has_b_frames": 0,
        "height": 1080,
        "index": 0,
        "is_avc": "false",
        "level": 41,
        "nal_length_size": "0",
        "pix_fmt": "yuv422p10le",
        "profile": "High 4:2:2 Intra",
        "r_frame_rate": "25/1",
        "refs": 1,
        "sample_aspect_ratio": "1:1",
        "start_pts": 0,
        "start_time": "0.000000",
        "tags": {
          "file_package_umid": "0x060A2B340101010501010D20130000004EC537AF4B924E439172A26B15626684",
          "track_name": "Picture Track"
        },
        "time_base": "1/25",
        "width": 1920
      }
    ]
  },
  "mediainfo": {
    "audio_streams": [
      {
        "BitDepth": 16,
        "BitRate": 768000,
        "BitRate_Mode": "CBR",
        "Channels": 1,
        "CodecID": "0D01030102060300",
        "Delay": "36930.040",
        "Delay_DropFrame": "No",
        "Delay_Source": "Container",
        "Duration": "897.720",
        "Format": "PCM",
        "Format_Settings_Endianness": "Little",
        "Format_Settings_Wrapping": "Frame (AES)",
        "FrameCount": 22443,
        "FrameRate": "25.000",
        "ID": 3,
        "SamplesPerFrame": 1920,
        "SamplingCount": 43090560,
        "SamplingRate": 48000,
        "StreamOrder": 1,
        "StreamSize": 86181120,
        "StreamSize_Proportion": "0.00637",
        "Title": "Audio Track",
        "extra": {
          "BlockAlignment": 2,
          "Delay_SDTI": 36930040,
          "Locked": "Yes"
        }
      },
      {
        "BitDepth": 16,
        "BitRate": 768000,
        "BitRate_Mode": "CBR",
        "Channels": 1,
        "CodecID": "0D01030102060300",
        "Delay": "36930.040",
        "Delay_DropFrame": "No",
        "Delay_Source": "Container",
        "Duration": "897.720",
        "Format": "PCM",
        "Format_Settings_Endianness": "Little",
        "Format_Settings_Wrapping": "Frame (AES)",
        "FrameCount": 22443,
        "FrameRate": "25.000",
        "ID": 4,
        "SamplesPerFrame": 1920,
        "SamplingCount": 43090560,
        "SamplingRate": 48000,
        "StreamOrder": 2,
        "StreamSize": 86181120,
        "StreamSize_Proportion": "0.00637",
        "Title": "Audio Track",
        "extra": {
          "BlockAlignment": 2,
          "Delay_SDTI": 36930040,
          "Locked": "Yes"
        }
      },
      {
        "BitDepth": 16,
        "BitRate": 768000,
        "BitRate_Mode": "CBR",
        "Channels": 1,
        "CodecID": "0D01030102060300",
        "Delay": "36930.040",
        "Delay_DropFrame": "No",
        "Delay_Source": "Container",
        "Duration": "897.720",
        "Format": "PCM",
        "Format_Settings_Endianness": "Little",
        "Format_Settings_Wrapping": "Frame (AES)",
        "FrameCount": 22443,
        "FrameRate": "25.000",
        "ID": 5,
        "SamplesPerFrame": 1920,
        "SamplingCount": 43090560,
        "SamplingRate": 48000,
        "StreamOrder": 3,
        "StreamSize": 86181120,
        "StreamSize_Proportion": "0.00637",
        "Title": "Audio Track",
        "extra": {
          "BlockAlignment": 2,
          "Delay_SDTI": 36930040,
          "Locked": "Yes"
        }
      },
      {
        "BitDepth": 16,
        "BitRate": 768000,
        "BitRate_Mode": "CBR",
        "Channels": 1,
        "CodecID": "0D01030102060300",
        "Delay": "36930.040",
        "Delay_DropFrame": "No",
        "Delay_Source": "Container",
        "Duration": "897.720",
        "Format": "PCM",
        "Format_Settings_Endianness": "Little",
        "Format_Settings_Wrapping": "Frame (AES)",
        "FrameCount": 22443,
        "FrameRate": "25.000",
        "ID": 6,
        "SamplesPerFrame": 1920,
        "SamplingCount": 43090560,
        "SamplingRate": 48000,
        "StreamOrder": 4,
        "StreamSize": 86181120,
        "StreamSize_Proportion": "0.00637",
        "Title": "Audio Track",
        "extra": {
          "BlockAlignment": 2,
          "Delay_SDTI": 36930040,
          "Locked": "Yes"
        }
      },
      {
        "BitDepth": 16,
        "BitRate": 768000,
        "BitRate_Mode": "CBR",
        "Channels": 1,
        "CodecID": "0D01030102060300",
        "Delay": "36930.040",
        "Delay_DropFrame": "No",
        "Delay_Source": "Container",
        "Duration": "897.720",
        "Format": "PCM",
        "Format_Settings_Endianness": "Little",
        "Format_Settings_Wrapping": "Frame (AES)",
        "FrameCount": 22443,
        "FrameRate": "25.000",
        "ID": 7,
        "SamplesPerFrame": 1920,
        "SamplingCount": 43090560,
        "SamplingRate": 48000,
        "StreamOrder": 5,
        "StreamSize": 86181120,
        "StreamSize_Proportion": "0.00637",
        "Title": "Audio Track",
        "extra": {
          "BlockAlignment": 2,
          "Delay_SDTI": 36930040,
          "Locked": "Yes"
        }
      },
      {
        "BitDepth": 16,
        "BitRate": 768000,
        "BitRate_Mode": "CBR",
        "Channels": 1,
        "CodecID": "0D01030102060300",
        "Delay": "36930.040",
        "Delay_DropFrame": "No",
        "Delay_Source": "Container",
        "Duration": "897.720",
        "Format": "PCM",
        "Format_Settings_Endianness": "Little",
        "Format_Settings_Wrapping": "Frame (AES)",
        "FrameCount": 22443,
        "FrameRate": "25.000",
        "ID": 8,
        "SamplesPerFrame": 1920,
        "SamplingCount": 43090560,
        "SamplingRate": 48000,
        "StreamOrder": 6,
        "StreamSize": 86181120,
        "StreamSize_Proportion": "0.00637",
        "Title": "Audio Track",
        "extra": {
          "BlockAlignment": 2,
          "Delay_SDTI": 36930040,
          "Locked": "Yes"
        }
      },
      {
        "BitDepth": 16,
        "BitRate": 768000,
        "BitRate_Mode": "CBR",
        "Channels": 1,
        "CodecID": "0D01030102060300",
        "Delay": "36930.040",
        "Delay_DropFrame": "No",
        "Delay_Source": "Container",
        "Duration": "897.720",
        "Format": "PCM",
        "Format_Settings_Endianness": "Little",
        "Format_Settings_Wrapping": "Frame (AES)",
        "FrameCount": 22443,
        "FrameRate": "25.000",
        "ID": 9,
        "SamplesPerFrame": 1920,
        "SamplingCount": 43090560,
        "SamplingRate": 48000,
        "StreamOrder": 7,
        "StreamSize": 86181120,
        "StreamSize_Proportion": "0.00637",
        "Title": "Audio Track",
        "extra": {
          "BlockAlignment": 2,
          "Delay_SDTI": 36930040,
          "Locked": "Yes"
        }
      },
      {
        "BitDepth": 16,
        "BitRate": 768000,
        "BitRate_Mode": "CBR",
        "Channels": 1,
        "CodecID": "0D01030102060300",
        "Delay": "36930.040",
        "Delay_DropFrame": "No",
        "Delay_Source": "Container",
        "Duration": "897.720",
        "Format": "PCM",
        "Format_Settings_Endianness": "Little",
        "Format_Settings_Wrapping": "Frame (AES)",
        "FrameCount": 22443,
        "FrameRate": "25.000",
        "ID": 10,
        "SamplesPerFrame": 1920,
        "SamplingCount": 43090560,
        "SamplingRate": 48000,
        "StreamOrder": 8,
        "StreamSize": 86181120,
        "StreamSize_Proportion": "0.00637",
        "Title": "Audio Track",
        "extra": {
          "BlockAlignment": 2,
          "Delay_SDTI": 36930040,
          "Locked": "Yes"
        }
      }
    ],
    "format": {
      "AudioCount": 8,
      "Duration": "897.720",
      "Encoded_Application_CompanyName": "QUANTEL",
      "Encoded_Application_Name": "GenerationQ",
      "Encoded_Application_Version": "V5.3 rev 14_P5",
      "Encoded_Date": "2019-04-10 10:39:27.692",
      "FileExtension": "mxf",
      "FileSize": 13524709436,
      "File_Modified_Date": "UTC 2019-04-10 10:46:55",
      "File_Modified_Date_Local": "2019-04-10 10:46:55",
      "FooterSize": 572,
      "Format": "MXF",
      "Format_Profile": "OP-1a",
      "Format_Settings": "Closed / Complete",
      "Format_Version": "1.2",
      "FrameCount": 22443,
      "FrameRate": "25.000",
      "OtherCount": 3,
      "OverallBitRate": 120524968,
      "StreamSize": 1122302,
      "VideoCount": 1,
      "extra": {
        "PrimaryPackage": "Material Package"
      },
      "filename": "mnt/archive2/UEFA/201904/7947133001/7947133001_original.mxf",
      "streams_attachment_count": 0,
      "streams_audio_count": 8,
      "streams_count": 9,
      "streams_data_count": 0,
      "streams_image_count": 0,
      "streams_other_count": 0,
      "streams_subtitle_count": 0,
      "streams_video_count": 1
    },
    "other_streams": [
      {
        "Format": "MXF TC",
        "ID": "1-Material",
        "TimeCode_FirstFrame": "10:15:30:01",
        "TimeCode_Settings": "Material Package",
        "TimeCode_Striped": "Yes",
        "Type": "Time code"
      },
      {
        "Format": "MXF TC",
        "ID": "1-Source",
        "TimeCode_FirstFrame": "10:15:30:01",
        "TimeCode_Settings": "Source Package",
        "TimeCode_Striped": "Yes",
        "Type": "Time code"
      },
      {
        "Format": "SMPTE TC",
        "MuxingMode": "SDTI",
        "TimeCode_FirstFrame": "10:15:30:01",
        "Type": "Time code"
      }
    ],
    "video_streams": [
      {
        "BitDepth": 10,
        "BitRate": 113664000,
        "ChromaSubsampling": "4:2:2",
        "CodecID": "0D01030102106001-0401020201323102",
        "ColorSpace": "YUV",
        "Delay": "36930.040",
        "DisplayAspectRatio": "1.778",
        "Duration": "897.720",
        "Format": "AVC",
        "Format_Level": "4.1",
        "Format_Profile": "High 4:2:2 Intra",
        "Format_Settings_CABAC": "No",
        "Format_Settings_GOP": "N=1",
        "Format_Settings_Wrapping": "Frame",
        "FrameCount": 22443,
        "FrameRate": "25.000",
        "Height": 1080,
        "ID": 2,
        "PixelAspectRatio": "1.000",
        "Sampled_Height": 1080,
        "Sampled_Width": 1920,
        "ScanOrder": "TFF",
        "ScanType": "MBAFF",
        "Standard": "Component",
        "Stored_Height": 1088,
        "StreamOrder": 0,
        "StreamSize": 12834138174,
        "Title": "Picture Track",
        "Width": 1920,
        "colour_description_present": "Yes",
        "colour_description_present_Source": "Stream",
        "colour_primaries": "BT.709",
        "colour_primaries_Source": "Stream",
        "colour_range": "Limited",
        "colour_range_Original": "Full",
        "colour_range_Original_Source": "Stream",
        "colour_range_Source": "Container",
        "extra": {
          "Delay_SDTI": 36930040
        },
        "matrix_coefficients": "BT.709",
        "matrix_coefficients_Source": "Stream",
        "transfer_characteristics": "BT.601",
        "transfer_characteristics_Original": "BT.709",
        "transfer_characteristics_Original_Source": "Stream",
        "transfer_characteristics_Source": "Container"
      }
    ]
  }
}
